<?xml version="1.0" encoding="iso-8859-1"?>
<!-- Uploaded to: SVG Repo, www.svgrepo.com, Generator: SVG Repo Mixer Tools -->
<svg fill="#000000" height="800px" width="800px" version="1.1" id="Layer_1" xmlns="http://www.w3.org/2000/svg" xmlns:xlink="http://www.w3.org/1999/xlink" 
	 viewBox="0 0 512 512" xml:space="preserve">
<g>
	<g>
		<path d="M509.013,215.39l-59.733-51.2c-1.536-1.331-3.516-2.057-5.547-2.057h-230.4V42.667c0-3.379-1.997-6.443-5.094-7.808
			c-3.098-1.357-6.707-0.785-9.19,1.51L2.782,215.569C1.007,217.182,0,219.469,0,221.867c0,2.398,1.007,4.685,2.782,6.298
			l196.267,179.2c2.492,2.287,6.127,2.859,9.19,1.51c3.098-1.365,5.094-4.42,5.094-7.808V281.6H338.21l105.523,89.293v98.44
			c0,4.719,3.814,8.533,8.533,8.533h51.2c4.719,0,8.533-3.814,8.533-8.533V221.867C512,219.375,510.908,217.011,509.013,215.39z
			 M494.933,460.8H460.8v-93.867c0-2.509-1.109-4.89-3.021-6.519l-110.933-93.867c-1.536-1.297-3.499-2.014-5.513-2.014H204.8
			c-4.719,0-8.533,3.814-8.533,8.533v108.646L21.188,221.867L196.267,62.02v108.646c0,4.719,3.814,8.533,8.533,8.533h235.776
			l54.357,46.592V460.8z"/>
	</g>
</g>
</svg>